<mxfile host="app.diagrams.net" modified="2020-08-30T04:03:14.600Z" agent="5.0 (Macintosh; Intel Mac OS X 10_14_6) AppleWebKit/537.36 (KHTML, like Gecko) Chrome/84.0.4147.125 Safari/537.36" etag="4_e8ZxR5waQATO5CmG4X" version="13.6.5" type="github">
  <diagram name="Page-1" id="03018318-947c-dd8e-b7a3-06fadd420f32">
    <mxGraphModel dx="2620" dy="2667" grid="1" gridSize="10" guides="1" tooltips="1" connect="1" arrows="1" fold="1" page="1" pageScale="1" pageWidth="1100" pageHeight="850" background="#ffffff" math="0" shadow="0">
      <root>
        <mxCell id="0" />
        <mxCell id="1" parent="0" />
        <mxCell id="n7F6rrYFRgKHrXra-Xrk-42" value="&lt;font style=&quot;font-size: 45px&quot;&gt;今天&lt;/font&gt;" style="rounded=0;whiteSpace=wrap;html=1;" vertex="1" parent="1">
          <mxGeometry y="960" width="960" height="280" as="geometry" />
        </mxCell>
        <mxCell id="n7F6rrYFRgKHrXra-Xrk-7" value="&lt;font style=&quot;font-size: 30px&quot;&gt;100vw&lt;/font&gt;" style="shape=dimension;whiteSpace=wrap;html=1;align=center;points=[];verticalAlign=bottom;spacingBottom=-5;labelBackgroundColor=#ffffff" vertex="1" parent="1">
          <mxGeometry y="870" width="960" height="40" as="geometry" />
        </mxCell>
        <mxCell id="n7F6rrYFRgKHrXra-Xrk-8" value="&lt;span style=&quot;font-size: 30px&quot;&gt;100vw&lt;/span&gt;" style="shape=dimension;direction=west;whiteSpace=wrap;html=1;align=center;points=[];verticalAlign=top;spacingTop=-8;labelBackgroundColor=#ffffff" vertex="1" parent="1">
          <mxGeometry y="-60" width="960" height="40" as="geometry" />
        </mxCell>
        <mxCell id="n7F6rrYFRgKHrXra-Xrk-9" value="&lt;font style=&quot;font-size: 30px&quot;&gt;100vh&lt;/font&gt;" style="shape=dimension;direction=north;whiteSpace=wrap;html=1;align=right;points=[];verticalAlign=middle;labelBackgroundColor=#ffffff" vertex="1" parent="1">
          <mxGeometry x="700" y="40" width="90" height="810" as="geometry" />
        </mxCell>
        <mxCell id="n7F6rrYFRgKHrXra-Xrk-11" value="&lt;span style=&quot;font-size: 30px&quot;&gt;33% (33vw)&lt;/span&gt;" style="shape=dimension;whiteSpace=wrap;html=1;align=center;points=[];verticalAlign=bottom;spacingBottom=-5;labelBackgroundColor=#ffffff" vertex="1" parent="1">
          <mxGeometry y="280" width="320" height="40" as="geometry" />
        </mxCell>
        <mxCell id="n7F6rrYFRgKHrXra-Xrk-16" value="&lt;span style=&quot;font-size: 30px&quot;&gt;33% (33vw)&lt;/span&gt;" style="shape=dimension;whiteSpace=wrap;html=1;align=center;points=[];verticalAlign=bottom;spacingBottom=-5;labelBackgroundColor=#ffffff" vertex="1" parent="1">
          <mxGeometry x="640" y="280" width="320" height="40" as="geometry" />
        </mxCell>
        <mxCell id="n7F6rrYFRgKHrXra-Xrk-18" value="&lt;span style=&quot;font-size: 30px&quot;&gt;33%(33vw)&lt;/span&gt;" style="shape=dimension;whiteSpace=wrap;html=1;align=center;points=[];verticalAlign=bottom;spacingBottom=-5;labelBackgroundColor=#ffffff" vertex="1" parent="1">
          <mxGeometry x="320" y="280" width="320" height="40" as="geometry" />
        </mxCell>
        <mxCell id="n7F6rrYFRgKHrXra-Xrk-19" value="&lt;font style=&quot;font-size: 30px&quot;&gt;5vh&lt;/font&gt;" style="shape=dimension;direction=north;whiteSpace=wrap;html=1;align=right;points=[];verticalAlign=middle;labelBackgroundColor=#ffffff" vertex="1" parent="1">
          <mxGeometry x="970" y="40" width="90" height="40" as="geometry" />
        </mxCell>
        <mxCell id="n7F6rrYFRgKHrXra-Xrk-20" value="" style="strokeWidth=1;shadow=0;dashed=0;align=center;html=1;shape=mxgraph.mockup.rrect;rSize=10;fillColor=#ffffff;strokeColor=#666666;" vertex="1" parent="1">
          <mxGeometry y="760" width="960" height="90" as="geometry" />
        </mxCell>
        <mxCell id="n7F6rrYFRgKHrXra-Xrk-21" value="Button 2" style="strokeColor=inherit;fillColor=inherit;gradientColor=inherit;strokeWidth=1;shadow=0;dashed=0;align=center;html=1;shape=mxgraph.mockup.rrect;rSize=0;fontSize=17;fontColor=#666666;fontStyle=1;resizeHeight=1;" vertex="1" parent="n7F6rrYFRgKHrXra-Xrk-20">
          <mxGeometry width="125" height="90" relative="1" as="geometry">
            <mxPoint x="125" as="offset" />
          </mxGeometry>
        </mxCell>
        <mxCell id="n7F6rrYFRgKHrXra-Xrk-22" value="Button 3" style="strokeColor=inherit;fillColor=inherit;gradientColor=inherit;strokeWidth=1;shadow=0;dashed=0;align=center;html=1;shape=mxgraph.mockup.rrect;rSize=0;fontSize=17;fontColor=#666666;fontStyle=1;resizeHeight=1;" vertex="1" parent="n7F6rrYFRgKHrXra-Xrk-20">
          <mxGeometry width="125" height="90" relative="1" as="geometry">
            <mxPoint x="250" as="offset" />
          </mxGeometry>
        </mxCell>
        <mxCell id="n7F6rrYFRgKHrXra-Xrk-23" value="Button 4" style="strokeColor=inherit;fillColor=inherit;gradientColor=inherit;strokeWidth=1;shadow=0;dashed=0;align=center;html=1;shape=mxgraph.mockup.rightButton;rSize=10;fontSize=17;fontColor=#666666;fontStyle=1;resizeHeight=1;" vertex="1" parent="n7F6rrYFRgKHrXra-Xrk-20">
          <mxGeometry x="1" width="125" height="90" relative="1" as="geometry">
            <mxPoint x="-125" as="offset" />
          </mxGeometry>
        </mxCell>
        <mxCell id="n7F6rrYFRgKHrXra-Xrk-24" value="Button 1" style="strokeWidth=1;shadow=0;dashed=0;align=center;html=1;shape=mxgraph.mockup.leftButton;rSize=10;fontSize=17;fontColor=#ffffff;fontStyle=1;fillColor=#008cff;strokeColor=#008cff;resizeHeight=1;" vertex="1" parent="n7F6rrYFRgKHrXra-Xrk-20">
          <mxGeometry width="125" height="90" relative="1" as="geometry" />
        </mxCell>
        <mxCell id="n7F6rrYFRgKHrXra-Xrk-25" value="&lt;font style=&quot;font-size: 30px&quot;&gt;10vh&lt;/font&gt;" style="shape=dimension;direction=north;whiteSpace=wrap;html=1;align=right;points=[];verticalAlign=middle;labelBackgroundColor=#ffffff" vertex="1" parent="1">
          <mxGeometry x="1000" y="760" width="90" height="90" as="geometry" />
        </mxCell>
        <mxCell id="n7F6rrYFRgKHrXra-Xrk-26" value="Reading Page" style="swimlane;" vertex="1" parent="1">
          <mxGeometry y="20" width="960" height="830" as="geometry" />
        </mxCell>
        <mxCell id="n7F6rrYFRgKHrXra-Xrk-28" value="Quiz Page" style="swimlane;" vertex="1" parent="1">
          <mxGeometry y="940" width="960" height="860" as="geometry" />
        </mxCell>
        <mxCell id="n7F6rrYFRgKHrXra-Xrk-29" value="" style="strokeWidth=1;shadow=0;dashed=0;align=center;html=1;shape=mxgraph.mockup.rrect;rSize=10;fillColor=#ffffff;strokeColor=#666666;" vertex="1" parent="n7F6rrYFRgKHrXra-Xrk-28">
          <mxGeometry y="770" width="960" height="90" as="geometry" />
        </mxCell>
        <mxCell id="n7F6rrYFRgKHrXra-Xrk-30" value="Button 2" style="strokeColor=inherit;fillColor=inherit;gradientColor=inherit;strokeWidth=1;shadow=0;dashed=0;align=center;html=1;shape=mxgraph.mockup.rrect;rSize=0;fontSize=17;fontColor=#666666;fontStyle=1;resizeHeight=1;" vertex="1" parent="n7F6rrYFRgKHrXra-Xrk-29">
          <mxGeometry width="125" height="90" relative="1" as="geometry">
            <mxPoint x="125" as="offset" />
          </mxGeometry>
        </mxCell>
        <mxCell id="n7F6rrYFRgKHrXra-Xrk-31" value="Button 3" style="strokeColor=inherit;fillColor=inherit;gradientColor=inherit;strokeWidth=1;shadow=0;dashed=0;align=center;html=1;shape=mxgraph.mockup.rrect;rSize=0;fontSize=17;fontColor=#666666;fontStyle=1;resizeHeight=1;" vertex="1" parent="n7F6rrYFRgKHrXra-Xrk-29">
          <mxGeometry width="125" height="90" relative="1" as="geometry">
            <mxPoint x="250" as="offset" />
          </mxGeometry>
        </mxCell>
        <mxCell id="n7F6rrYFRgKHrXra-Xrk-32" value="Button 4" style="strokeColor=inherit;fillColor=inherit;gradientColor=inherit;strokeWidth=1;shadow=0;dashed=0;align=center;html=1;shape=mxgraph.mockup.rightButton;rSize=10;fontSize=17;fontColor=#666666;fontStyle=1;resizeHeight=1;" vertex="1" parent="n7F6rrYFRgKHrXra-Xrk-29">
          <mxGeometry x="1" width="125" height="90" relative="1" as="geometry">
            <mxPoint x="-125" as="offset" />
          </mxGeometry>
        </mxCell>
        <mxCell id="n7F6rrYFRgKHrXra-Xrk-33" value="Button 1" style="strokeWidth=1;shadow=0;dashed=0;align=center;html=1;shape=mxgraph.mockup.leftButton;rSize=10;fontSize=17;fontColor=#ffffff;fontStyle=1;fillColor=#008cff;strokeColor=#008cff;resizeHeight=1;" vertex="1" parent="n7F6rrYFRgKHrXra-Xrk-29">
          <mxGeometry width="125" height="90" relative="1" as="geometry" />
        </mxCell>
        <mxCell id="n7F6rrYFRgKHrXra-Xrk-35" value="" style="group" vertex="1" connectable="0" parent="n7F6rrYFRgKHrXra-Xrk-28">
          <mxGeometry y="20" width="960" height="200" as="geometry" />
        </mxCell>
        <mxCell id="n7F6rrYFRgKHrXra-Xrk-36" value="Card Editor" style="swimlane;" vertex="1" parent="n7F6rrYFRgKHrXra-Xrk-35">
          <mxGeometry width="320" height="160" as="geometry" />
        </mxCell>
        <mxCell id="n7F6rrYFRgKHrXra-Xrk-37" value="Recording" style="swimlane;" vertex="1" parent="n7F6rrYFRgKHrXra-Xrk-35">
          <mxGeometry x="320" width="320" height="50" as="geometry" />
        </mxCell>
        <mxCell id="n7F6rrYFRgKHrXra-Xrk-34" value="" style="group" vertex="1" connectable="0" parent="1">
          <mxGeometry y="40" width="960" height="200" as="geometry" />
        </mxCell>
        <mxCell id="n7F6rrYFRgKHrXra-Xrk-12" value="Container" style="swimlane;" vertex="1" parent="n7F6rrYFRgKHrXra-Xrk-34">
          <mxGeometry width="320" height="200" as="geometry" />
        </mxCell>
        <mxCell id="n7F6rrYFRgKHrXra-Xrk-14" value="Container" style="swimlane;" vertex="1" parent="n7F6rrYFRgKHrXra-Xrk-34">
          <mxGeometry x="320" width="320" height="200" as="geometry" />
        </mxCell>
        <mxCell id="n7F6rrYFRgKHrXra-Xrk-39" value="&lt;font style=&quot;font-size: 30px&quot;&gt;100vh&lt;/font&gt;" style="shape=dimension;direction=north;whiteSpace=wrap;html=1;align=right;points=[];verticalAlign=middle;labelBackgroundColor=#ffffff" vertex="1" parent="1">
          <mxGeometry x="1000" y="960" width="40" height="840" as="geometry" />
        </mxCell>
        <mxCell id="n7F6rrYFRgKHrXra-Xrk-40" value="&lt;font style=&quot;font-size: 30px&quot;&gt;5vh&lt;/font&gt;" style="shape=dimension;direction=north;whiteSpace=wrap;html=1;align=right;points=[];verticalAlign=middle;labelBackgroundColor=#ffffff" vertex="1" parent="1">
          <mxGeometry x="975" y="960" width="90" height="40" as="geometry" />
        </mxCell>
        <mxCell id="n7F6rrYFRgKHrXra-Xrk-17" value="Foo bar" style="rounded=0;whiteSpace=wrap;html=1;" vertex="1" parent="1">
          <mxGeometry x="640" y="40" width="320" height="40" as="geometry" />
        </mxCell>
        <mxCell id="n7F6rrYFRgKHrXra-Xrk-41" style="edgeStyle=orthogonalEdgeStyle;rounded=0;orthogonalLoop=1;jettySize=auto;html=1;exitX=0.5;exitY=1;exitDx=0;exitDy=0;" edge="1" parent="1" source="n7F6rrYFRgKHrXra-Xrk-17" target="n7F6rrYFRgKHrXra-Xrk-17">
          <mxGeometry relative="1" as="geometry" />
        </mxCell>
        <mxCell id="n7F6rrYFRgKHrXra-Xrk-38" value="Foo bar" style="rounded=0;whiteSpace=wrap;html=1;" vertex="1" parent="1">
          <mxGeometry x="640" y="960" width="320" height="40" as="geometry" />
        </mxCell>
        <mxCell id="n7F6rrYFRgKHrXra-Xrk-43" value="&lt;font style=&quot;font-size: 30px&quot;&gt;35vh&lt;/font&gt;" style="shape=dimension;direction=north;whiteSpace=wrap;html=1;align=right;points=[];verticalAlign=middle;labelBackgroundColor=#ffffff" vertex="1" parent="1">
          <mxGeometry x="1090" y="960" width="90" height="280" as="geometry" />
        </mxCell>
        <mxCell id="n7F6rrYFRgKHrXra-Xrk-45" value="&lt;font style=&quot;font-size: 50px&quot;&gt;example sentences&lt;/font&gt;" style="rounded=0;whiteSpace=wrap;html=1;" vertex="1" parent="1">
          <mxGeometry y="1240" width="960" height="470" as="geometry" />
        </mxCell>
        <mxCell id="n7F6rrYFRgKHrXra-Xrk-46" value="&lt;font style=&quot;font-size: 30px&quot;&gt;55vh&lt;/font&gt;" style="shape=dimension;direction=north;whiteSpace=wrap;html=1;align=right;points=[];verticalAlign=middle;labelBackgroundColor=#ffffff" vertex="1" parent="1">
          <mxGeometry x="1200" y="1240" width="90" height="460" as="geometry" />
        </mxCell>
        <mxCell id="n7F6rrYFRgKHrXra-Xrk-47" value="&lt;font style=&quot;font-size: 30px&quot;&gt;10vh&lt;/font&gt;" style="shape=dimension;direction=north;whiteSpace=wrap;html=1;align=right;points=[];verticalAlign=middle;labelBackgroundColor=#ffffff" vertex="1" parent="1">
          <mxGeometry x="1060" y="1710" width="90" height="90" as="geometry" />
        </mxCell>
      </root>
    </mxGraphModel>
  </diagram>
</mxfile>
